<svg t="1697698349588" class="icon" viewBox="0 0 1024 1024" version="1.1" xmlns="http://www.w3.org/2000/svg" p-id="9222" width="200" height="200"><path d="M865.109333 511.573333l90.510223 90.510223a14.193778 14.193778 0 0 1 0 20.110222l-20.110223 20.110222a14.222222 14.222222 0 0 1-20.110222 0L824.888889 551.822222l-90.510222 90.510222a14.222222 14.222222 0 0 1-20.110223 0l-20.110222-20.110222a14.222222 14.222222 0 0 1 0-20.110222l90.510222-90.510222-90.510222-90.510222a14.222222 14.222222 0 0 1 0-20.110223l20.110222-20.110222a14.193778 14.193778 0 0 1 20.110223 0L824.888889 471.352889l90.510222-90.510222a14.193778 14.193778 0 0 1 20.110222 0l20.110223 20.110222a14.193778 14.193778 0 0 1 0 20.110222l-90.510223 90.510222zM541.895111 894.350222L213.333333 653.852444H113.777778c-31.431111 0-56.888889-24.746667-56.888889-56.376888v-171.804445a56.32 56.32 0 0 1 56.888889-56.405333h99.555555l328.561778-240.469334C572.16 103.310222 597.333333 106.467556 597.333333 167.936v687.274667c0 61.468444-25.173333 64.625778-55.438222 39.139555z" fill="#000000" p-id="9223"></path></svg>